<svg width="140" height="36" viewBox="0 0 140 36" fill="none" xmlns="http://www.w3.org/2000/svg">
<path fill-rule="evenodd" clip-rule="evenodd" d="M27.8333 18C27.8333 25.0877 22.0877 30.8333 15 30.8333C7.91234 30.8333 2.16666 25.0877 2.16666 18C2.16666 10.9123 7.91234 5.16666 15 5.16666C22.0877 5.16666 27.8333 10.9123 27.8333 18ZM30 18C30 26.2843 23.2843 33 15 33C6.71573 33 0 26.2843 0 18C0 9.71573 6.71573 3 15 3C23.2843 3 30 9.71573 30 18ZM23.2759 11.2759C23.2759 12.1329 22.5812 12.8276 21.7242 12.8276C20.8672 12.8276 20.1725 12.1329 20.1725 11.2759C20.1725 10.4189 20.8672 9.72418 21.7242 9.72418C22.5812 9.72418 23.2759 10.4189 23.2759 11.2759ZM10.4879 19.209C11.1556 21.7009 13.717 23.1797 16.2089 22.512C18.7008 21.8443 20.1796 19.2829 19.5119 16.791C18.8442 14.2991 16.2828 12.8203 13.7909 13.488C11.299 14.1557 9.82015 16.7171 10.4879 19.209ZM8.39503 19.7698C9.37244 23.4175 13.1219 25.5823 16.7696 24.6049C20.4174 23.6274 22.5821 19.878 21.6047 16.2302C20.6273 12.5825 16.8779 10.4177 13.2301 11.3952C9.58236 12.3726 7.41762 16.122 8.39503 19.7698Z" fill="url(#paint0_linear_3001_419)"/>
<path d="M46.7369 28.3958C45.2101 28.3958 43.8623 28.1225 42.6936 27.5759C41.5249 27.0292 40.6107 26.247 39.951 25.2291C39.2912 24.2112 38.9613 22.9859 38.9613 21.5533V20.7616H42.6371V21.5533C42.6371 22.7409 43.0047 23.6362 43.7398 24.2394C44.475 24.8238 45.474 25.116 46.7369 25.116C48.0187 25.116 48.9707 24.8615 49.5927 24.3525C50.2336 23.8436 50.5541 23.1933 50.5541 22.4016C50.5541 21.8549 50.3938 21.4119 50.0734 21.0727C49.7718 20.7334 49.3194 20.46 48.7162 20.2527C48.1318 20.0265 47.4155 19.8191 46.5673 19.6306L45.917 19.4893C44.5598 19.1877 43.3911 18.8107 42.4109 18.3583C41.4495 17.887 40.705 17.2744 40.1772 16.5204C39.6682 15.7664 39.4137 14.7862 39.4137 13.5798C39.4137 12.3734 39.6965 11.3461 40.262 10.4978C40.8463 9.63074 41.6569 8.97099 42.6936 8.5186C43.7492 8.04735 44.9839 7.81172 46.3976 7.81172C47.8114 7.81172 49.0649 8.05677 50.1582 8.54687C51.2704 9.01812 52.1374 9.73442 52.7595 10.6958C53.4004 11.6383 53.7208 12.8258 53.7208 14.2584V15.1066H50.0451V14.2584C50.0451 13.5044 49.8943 12.9012 49.5927 12.4488C49.31 11.9776 48.8953 11.6383 48.3486 11.4309C47.802 11.2047 47.1516 11.0916 46.3976 11.0916C45.2666 11.0916 44.4278 11.3084 43.8812 11.7419C43.3534 12.1566 43.0895 12.7316 43.0895 13.4667C43.0895 13.9568 43.212 14.3715 43.4571 14.7108C43.721 15.0501 44.1074 15.3328 44.6163 15.559C45.1253 15.7852 45.7756 15.9832 46.5673 16.1528L47.2176 16.2942C48.6314 16.5958 49.8566 16.9822 50.8934 17.4535C51.9489 17.9247 52.7689 18.5468 53.3533 19.3196C53.9376 20.0925 54.2298 21.0821 54.2298 22.2885C54.2298 23.4949 53.9188 24.5599 53.2967 25.4835C52.6935 26.3883 51.8264 27.1046 50.6954 27.6324C49.5833 28.1414 48.2638 28.3958 46.7369 28.3958ZM56.2782 28V13.9757H59.7843V15.8135H60.2932C60.5194 15.3234 60.9435 14.8616 61.5656 14.428C62.1876 13.9757 63.1301 13.7495 64.3931 13.7495C65.4864 13.7495 66.4383 14.0039 67.2488 14.5129C68.0782 15.003 68.7191 15.691 69.1715 16.5769C69.6239 17.444 69.8501 18.4619 69.8501 19.6306V28H66.2875V19.9134C66.2875 18.8578 66.0236 18.0661 65.4958 17.5383C64.9868 17.0105 64.2517 16.7466 63.2903 16.7466C62.1971 16.7466 61.3488 17.1142 60.7456 17.8493C60.1424 18.5656 59.8408 19.5741 59.8408 20.8747V28H56.2782ZM77.2076 28.3958C76.2085 28.3958 75.3131 28.2262 74.5214 27.8869C73.7298 27.5288 73.0983 27.0198 72.627 26.3601C72.1746 25.6815 71.9484 24.8615 71.9484 23.9001C71.9484 22.9388 72.1746 22.1377 72.627 21.4968C73.0983 20.837 73.7392 20.3469 74.5497 20.0265C75.3791 19.6872 76.3216 19.5175 77.3772 19.5175H81.2226V18.7258C81.2226 18.0661 81.0152 17.5289 80.6006 17.1142C80.1859 16.6806 79.5261 16.4638 78.6213 16.4638C77.7354 16.4638 77.0756 16.6712 76.6421 17.0859C76.2085 17.4817 75.9258 18.0001 75.7938 18.641L72.5139 17.5383C72.7401 16.822 73.0983 16.1717 73.5884 15.5873C74.0973 14.9841 74.7665 14.5034 75.5959 14.1453C76.4441 13.7683 77.4715 13.5798 78.6779 13.5798C80.5252 13.5798 81.986 14.0416 83.0605 14.9653C84.1349 15.8889 84.6721 17.2273 84.6721 18.9803V24.2112C84.6721 24.7767 84.936 25.0594 85.4638 25.0594H86.5948V28H84.2197C83.5223 28 82.9474 27.8304 82.495 27.4911C82.0426 27.1518 81.8164 26.6994 81.8164 26.1339V26.1056H81.2791C81.2037 26.3318 81.0341 26.6334 80.7702 27.0104C80.5063 27.3685 80.0916 27.689 79.5261 27.9717C78.9606 28.2545 78.1878 28.3958 77.2076 28.3958ZM77.8296 25.5118C78.8287 25.5118 79.6392 25.2385 80.2613 24.6918C80.9021 24.1263 81.2226 23.3818 81.2226 22.4581V22.1754H77.6317C76.9719 22.1754 76.4536 22.3167 76.0766 22.5995C75.6996 22.8822 75.5111 23.2781 75.5111 23.787C75.5111 24.296 75.709 24.7107 76.1048 25.0311C76.5007 25.3516 77.0756 25.5118 77.8296 25.5118ZM88.3514 33.655V13.9757H91.8575V15.6721H92.3664C92.6869 15.1255 93.1864 14.6448 93.865 14.2301C94.5436 13.7966 95.5144 13.5798 96.7773 13.5798C97.9083 13.5798 98.9545 13.8626 99.9158 14.428C100.877 14.9747 101.65 15.7852 102.234 16.8597C102.819 17.9341 103.111 19.2348 103.111 20.7616V21.214C103.111 22.7409 102.819 24.0415 102.234 25.116C101.65 26.1904 100.877 27.0104 99.9158 27.5759C98.9545 28.1225 97.9083 28.3958 96.7773 28.3958C95.9291 28.3958 95.2128 28.2922 94.6284 28.0848C94.0629 27.8963 93.6011 27.6513 93.243 27.3497C92.9037 27.0292 92.6303 26.7088 92.423 26.3883H91.914V33.655H88.3514ZM95.7029 25.2856C96.815 25.2856 97.7292 24.9369 98.4455 24.2394C99.1807 23.5231 99.5483 22.4864 99.5483 21.1292V20.8465C99.5483 19.4893 99.1807 18.4619 98.4455 17.7645C97.7104 17.0482 96.7962 16.69 95.7029 16.69C94.6096 16.69 93.6954 17.0482 92.9602 17.7645C92.2251 18.4619 91.8575 19.4893 91.8575 20.8465V21.1292C91.8575 22.4864 92.2251 23.5231 92.9602 24.2394C93.6954 24.9369 94.6096 25.2856 95.7029 25.2856ZM105.534 28V13.9757H109.097V28H105.534ZM107.315 12.3357C106.674 12.3357 106.128 12.1284 105.675 11.7137C105.242 11.299 105.025 10.7523 105.025 10.0737C105.025 9.39512 105.242 8.84847 105.675 8.43377C106.128 8.01907 106.674 7.81172 107.315 7.81172C107.975 7.81172 108.522 8.01907 108.955 8.43377C109.389 8.84847 109.606 9.39512 109.606 10.0737C109.606 10.7523 109.389 11.299 108.955 11.7137C108.522 12.1284 107.975 12.3357 107.315 12.3357ZM114.515 28V16.9162H110.952V13.9757H114.515V11.3744C114.515 10.413 114.797 9.64959 115.363 9.08409C115.947 8.49975 116.701 8.20757 117.625 8.20757H121.301V11.1482H118.869C118.341 11.1482 118.077 11.4309 118.077 11.9964V13.9757H121.753V16.9162H118.077V28H114.515ZM125.19 33.655V30.5447H132.824C133.352 30.5447 133.616 30.262 133.616 29.6965V26.1621H133.107C132.956 26.4826 132.72 26.803 132.4 27.1235C132.079 27.4439 131.646 27.7078 131.099 27.9152C130.553 28.1225 129.855 28.2262 129.007 28.2262C127.914 28.2262 126.952 27.9812 126.123 27.4911C125.312 26.9821 124.681 26.2847 124.228 25.3987C123.776 24.5128 123.55 23.4949 123.55 22.345V13.9757H127.113V22.0623C127.113 23.1179 127.367 23.9096 127.876 24.4374C128.404 24.9652 129.148 25.2291 130.11 25.2291C131.203 25.2291 132.051 24.8709 132.654 24.1546C133.258 23.4195 133.559 22.4016 133.559 21.1009V13.9757H137.122V30.4882C137.122 31.4495 136.839 32.213 136.274 32.7785C135.708 33.3628 134.954 33.655 134.012 33.655H125.19Z" fill="white"/>
<defs>
<linearGradient id="paint0_linear_3001_419" x1="15" y1="3" x2="15" y2="33" gradientUnits="userSpaceOnUse">
<stop stop-color="#877EFF"/>
<stop offset="0.461458" stop-color="#685DFF"/>
<stop offset="1" stop-color="#3121FF"/>
</linearGradient>
</defs>
</svg>
